<svg width="42" height="57" viewBox="0 0 42 57" fill="none" xmlns="http://www.w3.org/2000/svg">
<path d="M41.8785 28.5775C41.8785 39.265 33.6285 48.265 23.1285 49.2025V54.8275C23.1285 55.765 22.191 56.7025 21.2535 56.7025C20.316 56.7025 19.3785 55.765 19.3785 54.8275V49.2025C8.87854 48.265 0.62854 39.265 0.62854 28.5775C0.62854 27.64 1.56604 26.7025 2.50354 26.7025C3.44104 26.7025 4.37854 27.64 4.37854 28.5775C4.37854 37.9525 11.8785 45.4525 21.2535 45.4525C30.6285 45.4525 38.1285 37.9525 38.1285 28.5775C38.1285 27.64 39.066 26.7025 40.0035 26.7025C40.941 26.7025 41.8785 27.64 41.8785 28.5775Z" fill="#673AB7"/>
<path d="M21.2535 0.452469C13.941 0.452469 8.12854 6.26497 8.12854 13.5775V28.5775C8.12854 35.89 13.941 41.7025 21.2535 41.7025C28.566 41.7025 34.3785 35.89 34.3785 28.5775V13.5775C34.3785 6.26497 28.566 0.452469 21.2535 0.452469Z" fill="#FFC10A"/>
</svg>
